HIERARCHY
ROOT Pelvis
{
	OFFSET 0.000000 0.000000 0.000000
	CHANNELS 6 Xposition Yposition Zposition Xrotation Yrotation Zrotation
	JOINT LeftUpLeg_virtual
	{
		OFFSET 0.000000 0.000000 0.000000
		CHANNELS 3 Xrotation Yrotation Zrotation
		JOINT LeftUpLeg
		{
			OFFSET 8.479700 -4.795502 -0.379100
			CHANNELS 3 Xrotation Yrotation Zrotation
			JOINT LeftLeg
			{
				OFFSET 0.024144 -32.555107 0.112900
				CHANNELS 3 Xrotation Yrotation Zrotation
				JOINT LeftFoot
				{
					OFFSET -0.024144 -32.638630 -3.012600
					CHANNELS 3 Xrotation Yrotation Zrotation
					JOINT LeftToeBase
					{
						OFFSET 0.970200 -13.225400 11.864200
						CHANNELS 3 Xrotation Yrotation Zrotation
						End Site
						{
							OFFSET 0 0 0
						}
					}
				}
			}
		}
	}
	JOINT RightUpLeg_virtual
	{
		OFFSET 0.000000 0.000000 0.000000
		CHANNELS 3 Xrotation Yrotation Zrotation
		JOINT RightUpLeg
		{
			OFFSET -8.479700 -4.795502 -0.379100
			CHANNELS 3 Xrotation Yrotation Zrotation
			JOINT RightLeg
			{
				OFFSET -0.023144 -32.555092 0.112900
				CHANNELS 3 Xrotation Yrotation Zrotation
				JOINT RightFoot
				{
					OFFSET 0.023144 -32.638641 -3.012700
					CHANNELS 3 Xrotation Yrotation Zrotation
					JOINT RightToeBase
					{
						OFFSET -0.970200 -13.225400 11.864200
						CHANNELS 3 Xrotation Yrotation Zrotation
						End Site
						{
							OFFSET 0 0 0
						}
					}
				}
			}
		}
	}
	JOINT Hips_virtual
	{
		OFFSET 0.000000 0.000000 0.000000
		CHANNELS 3 Xrotation Yrotation Zrotation
		JOINT Hips
		{
			OFFSET -0.000000 -0.000000 -0.000000
			CHANNELS 3 Xrotation Yrotation Zrotation
			JOINT Spine
			{
				OFFSET 0.000000 7.722000 1.166200
				CHANNELS 3 Xrotation Yrotation Zrotation
				JOINT Spine1
				{
					OFFSET 0.000000 12.024101 0.248800
					CHANNELS 3 Xrotation Yrotation Zrotation
					JOINT Spine2
					{
						OFFSET 0.000000 11.502998 -0.491200
						CHANNELS 3 Xrotation Yrotation Zrotation
						JOINT Neck_virtual
						{
							OFFSET 0.000000 0.000000 0.000000
							CHANNELS 3 Xrotation Yrotation Zrotation
							JOINT Neck
							{
								OFFSET 0.000000 18.430702 -3.123100
								CHANNELS 3 Xrotation Yrotation Zrotation
								JOINT Head
								{
									OFFSET 0.000000 9.051102 1.034000
									CHANNELS 3 Xrotation Yrotation Zrotation
									End Site
									{
										OFFSET 0 0 0
									}
								}
							}
						}
						JOINT LeftShoulder_virtual
						{
							OFFSET 0.000000 0.000000 0.000000
							CHANNELS 3 Xrotation Yrotation Zrotation
							JOINT LeftShoulder
							{
								OFFSET 6.197800 13.665199 -4.064700
								CHANNELS 3 Xrotation Yrotation Zrotation
								JOINT LeftArm
								{
									OFFSET 7.778100 -0.187103 -1.709300
									CHANNELS 3 Xrotation Yrotation Zrotation
									JOINT LeftForeArm
									{
										OFFSET 22.049376 0.000000 0.000000
										CHANNELS 3 Xrotation Yrotation Zrotation
										JOINT LeftHand
										{
											OFFSET 23.009392 0.000000 0.000000
											CHANNELS 3 Xrotation Yrotation Zrotation
											End Site
											{
												OFFSET 0 0 0
											}
										}
									}
								}
							}
						}
						JOINT RightShoulder_virtual
						{
							OFFSET 0.000000 0.000000 0.000000
							CHANNELS 3 Xrotation Yrotation Zrotation
							JOINT RightShoulder
							{
								OFFSET -6.197800 13.665199 -4.064700
								CHANNELS 3 Xrotation Yrotation Zrotation
								JOINT RightArm
								{
									OFFSET -7.778100 -0.187103 -1.709300
									CHANNELS 3 Xrotation Yrotation Zrotation
									JOINT RightForeArm
									{
										OFFSET -22.049376 0.000000 0.000000
										CHANNELS 3 Xrotation Yrotation Zrotation
										JOINT RightHand
										{
											OFFSET -23.009392 0.000000 0.000000
											CHANNELS 3 Xrotation Yrotation Zrotation
											End Site
											{
												OFFSET 0 0 0
											}
										}
									}
								}
							}
						}
					}
				}
			}
		}
	}
}
MOTION
Frames: 13
Frame Time: 0.03333333
-0.258331 77.263016 0.131952 0.000000 0.000000 0.000000 -6.087190 -43.034980 -4.015871 -27.325104 5.711023 13.933734 33.960353 -14.110962 -0.201460 -4.093051 0.706017 -8.143574 0.000000 0.000000 0.000000 -6.087190 -43.034980 -4.015871 -4.368552 -13.685252 -15.657121 32.702515 -9.019338 -0.425568 -20.501899 -4.055522 17.151587 0.000000 0.000000 0.000000 -6.087190 -43.034980 -4.015871 0.000000 -0.000001 0.000000 5.833539 4.645310 -1.245169 11.835726 9.038098 -3.084133 0.000000 0.000000 0.000000 11.835727 9.038085 -3.084132 -4.303054 -1.272938 0.206307 0.000000 0.000000 0.000000 11.835727 9.038085 -3.084132 1.387440 -0.696990 -7.876279 -14.260090 2.393795 -63.277120 9.865046 -47.524890 5.927943 0.000000 0.000000 0.000000 11.835727 9.038085 -3.084132 1.410928 9.461506 9.792742 1.220050 -24.270715 60.532920 -6.660701 41.858408 8.043845 0.000000 0.000000 0.000000 
-0.254760 77.259293 0.138475 0.000000 0.000000 0.000000 -6.060440 -43.113407 -3.990565 -27.326301 5.710588 13.920075 33.989180 -14.025523 -0.175866 -4.128781 0.714095 -8.178032 0.000000 0.000000 0.000000 -6.060440 -43.113407 -3.990565 -4.448311 -13.682458 -15.667074 32.732449 -8.944442 -0.484899 -20.503401 -4.060155 17.162495 0.000000 0.000000 0.000000 -6.060440 -43.113407 -3.990565 0.000000 -0.000001 0.000000 5.828696 4.650678 -1.255863 11.826957 9.047794 -3.104679 0.000000 0.000000 0.000000 11.826960 9.047797 -3.104677 -4.348295 -1.296192 0.185084 0.000000 0.000000 0.000000 11.826960 9.047797 -3.104677 1.387390 -0.696822 -7.876268 -14.262256 2.393789 -63.250666 9.848923 -47.561042 5.920500 0.000000 0.000000 0.000000 11.826960 9.047797 -3.104677 1.398779 9.503312 9.802039 1.235465 -24.253394 60.503605 -6.635579 41.828618 8.061787 0.000000 0.000000 0.000000 
-0.253294 77.264839 0.137405 0.000000 0.000000 0.000000 -6.030366 -43.179793 -3.955721 -27.310452 5.710238 13.895240 33.956525 -13.942520 -0.147012 -4.127144 0.717560 -8.226440 0.000000 0.000000 0.000000 -6.030366 -43.179793 -3.955721 -4.506170 -13.671431 -15.665946 32.724444 -8.908089 -0.545224 -20.491874 -4.059280 17.170541 0.000000 0.000000 0.000000 -6.030366 -43.179793 -3.955721 0.000000 0.000002 0.000000 5.825023 4.647772 -1.265155 11.819974 9.041232 -3.121164 0.000000 0.000000 0.000000 11.819972 9.041242 -3.121164 -4.387867 -1.297849 0.163176 0.000000 0.000000 0.000000 11.819972 9.041242 -3.121164 1.389711 -0.709913 -7.876830 -14.244239 2.394034 -63.227239 9.904581 -47.573142 5.947250 0.000000 0.000000 0.000000 11.819972 9.041242 -3.121164 1.393258 9.523889 9.813705 1.197309 -24.211982 60.500675 -6.605043 41.712696 8.037626 0.000000 0.000000 0.000000 
-0.249660 77.264954 0.140341 0.000000 0.000000 0.000000 -5.980125 -43.252426 -3.909856 -27.326801 5.709842 13.883014 33.954718 -13.867635 -0.133632 -4.142044 0.722506 -8.260567 0.000000 0.000000 0.000000 -5.980125 -43.252426 -3.909856 -4.590726 -13.653517 -15.671399 32.738890 -8.865656 -0.602722 -20.487296 -4.063078 17.184129 0.000000 0.000000 0.000000 -5.980125 -43.252426 -3.909856 0.000000 0.000000 0.000000 5.819682 4.640568 -1.271955 11.809247 9.026355 -3.132223 0.000000 0.000000 0.000000 11.809260 9.026343 -3.132224 -4.418641 -1.266524 0.119654 0.000000 0.000000 0.000000 11.809260 9.026343 -3.132224 1.389215 -0.712560 -7.883960 -14.233988 2.393099 -63.219220 9.867929 -47.596289 5.922707 0.000000 0.000000 0.000000 11.809260 9.026343 -3.132224 1.393276 9.550948 9.804895 1.182790 -24.200783 60.514363 -6.580823 41.627281 8.001253 0.000000 0.000000 0.000000 
-0.247030 77.267883 0.138659 0.000000 0.000000 0.000000 -5.935339 -43.317569 -3.865678 -27.331130 5.704580 13.858866 33.936980 -13.784412 -0.106543 -4.148198 0.722595 -8.302685 0.000000 0.000000 0.000000 -5.935339 -43.317569 -3.865678 -4.662861 -13.630717 -15.668527 32.742329 -8.834372 -0.663687 -20.480775 -4.068905 17.204041 0.000000 0.000000 0.000000 -5.935339 -43.317569 -3.865678 0.000000 0.000000 0.000000 5.817191 4.626512 -1.278522 11.803854 8.997840 -3.142078 0.000000 0.000000 0.000000 11.803864 8.997833 -3.142083 -4.445934 -1.219820 0.079432 0.000000 0.000000 0.000000 11.803864 8.997833 -3.142083 1.389179 -0.727277 -7.903652 -14.193238 2.416422 -63.198183 9.925521 -47.632677 5.956987 0.000000 0.000000 0.000000 11.803864 8.997833 -3.142083 1.394623 9.568491 9.789847 1.143574 -24.160807 60.514062 -6.548435 41.493041 7.985886 0.000000 0.000000 0.000000 
-0.237898 77.258560 0.140331 0.000000 0.000000 0.000000 -5.884828 -43.351323 -3.845688 -27.397212 5.678900 13.850917 34.008451 -13.730871 -0.066333 -4.187043 0.721878 -8.326953 0.000000 0.000000 0.000000 -5.884828 -43.351323 -3.845688 -4.735860 -13.608086 -15.643908 32.779335 -8.825789 -0.710404 -20.482103 -4.079050 17.229460 0.000000 0.000000 0.000000 -5.884828 -43.351323 -3.845688 0.000000 -0.000002 0.000000 5.814232 4.603439 -1.274057 11.796543 8.952115 -3.131483 0.000000 0.000000 0.000000 11.796544 8.952117 -3.131481 -4.488834 -1.152451 0.043644 0.000000 0.000000 0.000000 11.796544 8.952117 -3.131481 1.387837 -0.728952 -7.915400 -14.166465 2.425163 -63.199399 9.933047 -47.698602 5.967208 0.000000 0.000000 0.000000 11.796544 8.952117 -3.131481 1.387524 9.596392 9.798594 1.148346 -24.173370 60.480171 -6.532703 41.475788 7.986714 0.000000 0.000000 0.000000 
-0.241362 77.261063 0.140272 0.000000 0.000000 0.000000 -5.864155 -43.388558 -3.808267 -27.377732 5.656034 13.799895 33.993326 -13.649558 -0.025239 -4.197955 0.724817 -8.372596 0.000000 0.000000 0.000000 -5.864155 -43.388558 -3.808267 -4.779585 -13.616554 -15.649948 32.778863 -8.795183 -0.773086 -20.480338 -4.082511 17.251094 0.000000 0.000000 0.000000 -5.864155 -43.388558 -3.808267 0.000000 0.000000 0.000000 5.818652 4.574352 -1.281863 11.804309 8.893253 -3.142280 0.000000 0.000000 0.000000 11.804315 8.893254 -3.142279 -4.539883 -1.073146 0.023834 0.000000 0.000000 0.000000 11.804315 8.893254 -3.142279 1.389976 -0.732069 -7.903792 -14.170290 2.428515 -63.191708 9.950651 -47.720729 5.983793 0.000000 0.000000 0.000000 11.804315 8.893254 -3.142279 1.380852 9.601772 9.807589 1.087383 -24.124686 60.474652 -6.503701 41.341690 7.945997 0.000000 0.000000 0.000000 
-0.238172 77.250435 0.146408 0.000000 0.000000 0.000000 -5.816942 -43.417146 -3.787262 -27.436942 5.617557 13.782518 34.074721 -13.583026 0.020122 -4.248540 0.721860 -8.401227 0.000000 0.000000 0.000000 -5.816942 -43.417146 -3.787262 -4.843512 -13.601340 -15.624901 32.818123 -8.791207 -0.827080 -20.495827 -4.089350 17.279798 0.000000 0.000000 0.000000 -5.816942 -43.417146 -3.787262 0.000000 0.000001 0.000000 5.815699 4.542072 -1.275457 11.796431 8.829426 -3.126816 0.000000 0.000000 0.000000 11.796433 8.829406 -3.126814 -4.568164 -0.985270 -0.004782 0.000000 0.000000 0.000000 11.796433 8.829406 -3.126814 1.391988 -0.717132 -7.885972 -14.150123 2.435699 -63.223332 9.980360 -47.771228 6.014916 0.000000 0.000000 0.000000 11.796433 8.829406 -3.126814 1.367397 9.656444 9.840044 1.122272 -24.144463 60.394268 -6.478650 41.335273 7.982189 0.000000 0.000000 0.000000 
-0.237275 77.249733 0.144564 0.000000 0.000000 0.000000 -5.769283 -43.424994 -3.745668 -27.461670 5.586574 13.734899 34.081094 -13.523652 0.071313 -4.257945 0.720174 -8.439072 0.000000 0.000000 0.000000 -5.769283 -43.424994 -3.745668 -4.891745 -13.588812 -15.608048 32.825186 -8.810541 -0.876812 -20.492852 -4.095747 17.309424 0.000000 0.000000 0.000000 -5.769283 -43.424994 -3.745668 0.000000 0.000002 0.000000 5.818814 4.501717 -1.272527 11.800385 8.749121 -3.116194 0.000000 0.000000 0.000000 11.800388 8.749109 -3.116192 -4.616738 -0.905119 -0.032051 0.000000 0.000000 0.000000 11.800388 8.749109 -3.116192 1.386657 -0.733906 -7.854093 -14.137248 2.446215 -63.234533 10.003382 -47.795417 6.023985 0.000000 0.000000 0.000000 11.800388 8.749109 -3.116192 1.364998 9.655447 9.837854 1.069884 -24.098460 60.371455 -6.439599 41.224249 7.953328 0.000000 0.000000 0.000000 
-0.235899 77.244987 0.147095 0.000000 0.000000 0.000000 -5.722036 -43.429246 -3.709218 -27.502368 5.562437 13.703234 34.114678 -13.483474 0.109775 -4.282329 0.718189 -8.461723 0.000000 0.000000 0.000000 -5.722036 -43.429246 -3.709218 -4.940846 -13.576379 -15.589632 32.843719 -8.826536 -0.927906 -20.498864 -4.102518 17.340626 0.000000 0.000000 0.000000 -5.722036 -43.429246 -3.709218 0.000000 0.000000 0.000000 5.821138 4.457766 -1.269061 11.802612 8.661657 -3.104469 0.000000 0.000000 0.000000 11.802616 8.661669 -3.104470 -4.665596 -0.825099 -0.074349 0.000000 0.000000 0.000000 11.802616 8.661669 -3.104470 1.386324 -0.740581 -7.850283 -14.113964 2.464167 -63.239096 9.986064 -47.866987 6.024351 0.000000 0.000000 0.000000 11.802616 8.661669 -3.104470 1.362735 9.694572 9.838049 1.051447 -24.085991 60.351019 -6.431899 41.138127 7.938099 0.000000 0.000000 0.000000 
-0.237965 77.244865 0.146032 0.000000 0.000000 0.000000 -5.676235 -43.432377 -3.667087 -27.530269 5.554801 13.674104 34.111802 -13.455388 0.135198 -4.286402 0.714006 -8.476440 0.000000 0.000000 0.000000 -5.676235 -43.432377 -3.667087 -4.977211 -13.567227 -15.569561 32.843661 -8.857696 -0.978676 -20.496180 -4.110011 17.375204 0.000000 0.000000 0.000000 -5.676235 -43.432377 -3.667087 0.000000 0.000000 0.000000 5.824338 4.410556 -1.269998 11.806709 8.567345 -3.100687 0.000000 0.000000 0.000000 11.806715 8.567345 -3.100684 -4.727066 -0.736491 -0.094567 0.000000 0.000000 0.000000 11.806715 8.567345 -3.100684 1.382754 -0.743538 -7.811297 -14.101902 2.479803 -63.266908 9.979605 -47.901216 6.023714 0.000000 0.000000 0.000000 11.806715 8.567345 -3.100684 1.357413 9.718543 9.855733 1.002247 -24.044930 60.303672 -6.405904 41.021621 7.934764 0.000000 0.000000 0.000000 
-0.235383 77.243843 0.146864 0.000000 0.000000 0.000000 -5.613683 -43.435048 -3.613605 -27.575007 5.556545 13.657887 34.111857 -13.447818 0.144207 -4.293247 0.708813 -8.478217 0.000000 0.000000 0.000000 -5.613683 -43.435048 -3.613605 -5.039433 -13.551775 -15.552190 32.855846 -8.879780 -1.035862 -20.494398 -4.118427 17.401676 0.000000 0.000000 0.000000 -5.613683 -43.435048 -3.613605 0.000000 -0.000002 0.000000 5.826448 4.362470 -1.268914 11.808388 8.471385 -3.092251 0.000000 0.000000 0.000000 11.808393 8.471362 -3.092245 -4.776457 -0.612629 -0.113719 0.000000 0.000000 0.000000 11.808393 8.471362 -3.092245 1.380138 -0.768403 -7.816325 -14.062525 2.508824 -63.249485 10.011001 -47.977755 6.044476 0.000000 0.000000 0.000000 11.808393 8.471362 -3.092245 1.353921 9.774785 9.835271 0.974378 -24.035063 60.316110 -6.416951 40.893398 7.905953 0.000000 0.000000 0.000000 
-0.234629 77.244270 0.145100 0.000000 0.000000 0.000000 -5.554676 -43.434976 -3.565908 -27.617322 5.560163 13.640600 34.108790 -13.436580 0.161182 -4.298099 0.703634 -8.483556 0.000000 0.000000 0.000000 -5.554676 -43.434976 -3.565908 -5.087433 -13.539976 -15.526733 32.852971 -8.907429 -1.091537 -20.487333 -4.126021 17.434290 0.000000 0.000000 0.000000 -5.554676 -43.434976 -3.565908 0.000000 0.000001 0.000000 5.830573 4.312033 -1.267089 11.814025 8.370872 -3.082744 0.000000 0.000000 0.000000 11.814030 8.370859 -3.082742 -4.864138 -0.432104 -0.128962 0.000000 0.000000 0.000000 11.814030 8.370859 -3.082742 1.380347 -0.755285 -7.786167 -14.057727 2.507664 -63.288731 10.062553 -47.983752 6.077430 0.000000 0.000000 0.000000 11.814030 8.370859 -3.082742 1.345657 9.817690 9.847980 0.930053 -24.016909 60.254098 -6.401231 40.809506 7.925752 0.000000 0.000000 0.000000 
